<svg width="800" height="800" viewBox="0 0 800 800" fill="none" xmlns="http://www.w3.org/2000/svg">
<rect width="800" height="800" fill="black"/>
<circle cx="399.5" cy="399.5" r="318.5" fill="#D9D9D9" fill-opacity="0.01"/>
<circle cx="399.5" cy="399.5" r="316.5" stroke="white" stroke-opacity="0.1" stroke-width="4"/>
<path d="M325.419 194.753L507.529 182.66H547.094C563.212 182.66 571.206 202.218 559.702 213.507L475.969 295.68C472.109 299.468 466.749 301.32 461.374 300.723L404.106 294.36C392.641 293.086 382.954 302.773 384.228 314.237L386.644 335.981C387.698 345.467 395.974 352.482 405.506 351.967L481.025 347.884C491.333 347.327 499.997 355.535 499.997 365.858V521.625C499.997 524.094 499.489 526.537 498.504 528.802L466.745 601.847C464.041 608.067 458.069 612.239 451.298 612.638L252.185 624.385C235.929 625.344 226.857 605.944 238.014 594.083L297.862 530.465C300.946 527.187 305.147 525.183 309.635 524.848L404.292 517.793C414.838 517.007 422.437 507.342 420.713 496.908L411.452 440.878C409.971 431.918 402.047 425.465 392.973 425.828L313.11 429.022C303.476 429.408 295.25 422.133 294.453 412.525L282.71 270.959C282.455 267.882 282.995 264.791 284.28 261.983L310.243 205.226C312.994 199.213 318.821 195.192 325.419 194.753Z" fill="white"/>
<path d="M329.606 212.272L459.668 203.855C463.327 203.618 465.988 207.27 464.642 210.68L446.955 255.496C446.226 257.342 444.475 258.583 442.491 258.657L314.403 263.455C310.822 263.589 308.267 260.024 309.544 256.676L325.257 215.48C325.954 213.652 327.654 212.398 329.606 212.272Z" fill="black"/>
<path d="M338.701 231.673L468.764 223.257C472.422 223.02 475.083 226.671 473.737 230.082L456.051 274.897C455.322 276.744 453.57 277.984 451.587 278.058L323.498 282.856C319.918 282.99 317.363 279.425 318.639 276.078L334.353 234.881C335.05 233.053 336.749 231.8 338.701 231.673Z" fill="black" fill-opacity="0.35"/>
<path d="M323.58 545.189L453.642 536.772C457.301 536.535 459.962 540.186 458.616 543.597L440.929 588.413C440.201 590.259 438.449 591.499 436.466 591.574L308.377 596.371C304.797 596.505 302.241 592.941 303.518 589.593L319.231 548.396C319.929 546.568 321.628 545.315 323.58 545.189Z" fill="black"/>
<path d="M341.145 532.678L471.207 524.261C474.866 524.024 477.527 527.676 476.181 531.086L458.494 575.902C457.766 577.748 456.014 578.989 454.031 579.063L325.942 583.861C322.362 583.995 319.806 580.43 321.083 577.082L336.796 535.886C337.494 534.058 339.193 532.804 341.145 532.678Z" fill="black" fill-opacity="0.35"/>
<path d="M371.391 292.431L330.896 293.508C326.199 293.633 324.252 299.58 327.966 302.458L367.485 333.087C370.715 335.59 375.42 333.373 375.546 329.289L376.522 297.583C376.61 294.71 374.264 292.354 371.391 292.431Z" fill="black"/>
<path d="M316.405 349.531L356.9 348.454C361.596 348.329 363.543 342.382 359.83 339.504L320.31 308.875C317.081 306.372 312.375 308.589 312.25 312.673L311.274 344.379C311.186 347.252 313.531 349.608 316.405 349.531Z" fill="black"/>
<rect x="308.683" y="362.711" width="89.7631" height="40.8458" rx="5" transform="rotate(-0.502959 308.683 362.711)" fill="black"/>
<rect x="321.731" y="374.75" width="89.7631" height="40.8458" rx="5" transform="rotate(-0.502959 321.731 374.75)" fill="black" fill-opacity="0.35"/>
<rect x="428.355" y="373.495" width="50.8763" height="51.9782" rx="5" transform="rotate(-0.502959 428.355 373.495)" fill="black"/>
<rect x="417.482" y="362.132" width="50.8763" height="51.9782" rx="5" transform="rotate(-0.502959 417.482 362.132)" fill="black" fill-opacity="0.35"/>
<path d="M438.974 436.297L474.561 434.74C477.39 434.616 479.756 436.863 479.78 439.694L480.249 496.066C480.29 501.05 473.811 503.02 471.072 498.855L435.015 444.04C432.882 440.797 435.097 436.467 438.974 436.297Z" fill="black"/>
<path d="M471.172 518.596L435.595 520.39C432.768 520.532 430.386 518.301 430.344 515.471L429.499 459.103C429.425 454.119 435.891 452.106 438.658 456.253L475.079 510.826C477.233 514.055 475.048 518.4 471.172 518.596Z" fill="black"/>
<circle cx="620.5" cy="625.5" r="29.5" fill="white"/>
</svg>
