<?xml version="1.0" standalone="no"?>
<!DOCTYPE svg PUBLIC "-//W3C//DTD SVG 20010904//EN"
 "http://www.w3.org/TR/2001/REC-SVG-20010904/DTD/svg10.dtd">
<svg version="1.0" xmlns="http://www.w3.org/2000/svg"
 width="800.000000pt" height="800.000000pt" viewBox="0 0 800.000000 800.000000"
 preserveAspectRatio="xMidYMid meet">
<metadata>
Created by potrace 1.14, written by Peter Selinger 2001-2017
</metadata>
<g transform="translate(0.000000,800.000000) scale(0.100000,-0.100000)"
fill="#000000" stroke="none">
<path d="M1220 7989 c-160 -21 -346 -82 -498 -165 -233 -127 -453 -357 -576
-602 -45 -89 -98 -246 -123 -362 -17 -81 -18 -219 -18 -2860 l0 -2775 23 -104
c113 -502 454 -889 922 -1045 234 -78 -56 -71 3050 -71 l2775 0 104 23 c502
113 889 454 1045 922 78 234 71 -56 71 3050 l0 2775 -23 104 c-67 299 -193
525 -409 731 -194 186 -405 298 -693 367 -71 16 -222 17 -2830 19 -1515 1
-2784 -2 -2820 -7z m4339 -1840 c79 -44 114 -154 74 -233 -11 -21 -207 -221
-458 -466 -340 -333 -448 -433 -481 -446 -40 -15 -58 -14 -368 20 -364 41
-364 41 -434 -27 -50 -48 -56 -85 -37 -249 18 -150 26 -177 72 -220 54 -51 54
-51 509 -27 l421 23 38 -20 c22 -11 53 -37 69 -58 l31 -38 3 -830 2 -830 -156
-361 c-86 -199 -167 -383 -180 -409 -30 -60 -84 -97 -150 -104 -89 -9 -1911
-114 -1984 -114 -41 0 -82 6 -98 14 -82 43 -122 148 -88 230 21 50 657 721
696 735 18 6 251 27 519 47 267 20 503 40 524 45 48 12 103 68 118 119 10 34
6 76 -35 332 -26 161 -52 309 -58 328 -16 53 -45 88 -91 112 l-42 21 -442 -18
-442 -17 -46 22 c-56 27 -83 64 -96 132 -11 62 -119 1360 -119 1438 0 46 16
87 126 329 172 376 166 366 217 396 44 25 49 25 908 84 713 48 914 59 1153 60
273 1 290 0 325 -20z m742 -4126 c76 -24 161 -109 183 -183 35 -118 11 -215
-74 -302 -85 -84 -185 -108 -301 -71 -76 24 -161 109 -183 183 -35 118 -11
215 75 302 84 84 184 108 300 71z"/>
<path d="M3900 5918 c-407 -27 -612 -44 -625 -53 -14 -8 -48 -84 -104 -233
-104 -277 -108 -262 64 -262 209 0 1189 40 1210 49 14 6 33 38 54 92 78 198
151 393 151 405 0 7 -7 20 -16 28 -20 21 -13 21 -734 -26z"/>
<path d="M3503 5070 c-180 -4 -215 -8 -229 -22 -35 -35 -12 -60 203 -227 283
-219 285 -219 280 68 -2 164 -3 174 -22 180 -11 3 -115 4 -232 1z"/>
<path d="M3138 4903 c-12 -14 -17 -54 -20 -189 -3 -95 -1 -179 4 -188 8 -14
34 -16 191 -16 236 0 286 6 299 35 6 14 7 29 1 38 -14 27 -421 337 -441 337
-10 0 -26 -8 -34 -17z"/>
<path d="M3261 4373 c-85 -2 -150 -8 -158 -15 -10 -8 -13 -53 -13 -188 0 -153
2 -179 17 -191 13 -12 91 -13 432 -11 375 3 417 4 434 20 18 16 19 28 14 190
-3 113 -10 178 -17 187 -10 13 -57 15 -289 13 -152 -1 -341 -4 -420 -5z"/>
<path d="M4294 4245 c-15 -22 -16 -53 -12 -245 3 -159 8 -223 17 -234 12 -14
46 -16 242 -16 226 0 229 0 243 23 20 32 10 461 -11 483 -12 11 -57 14 -238
14 l-225 0 -16 -25z"/>
<path d="M4477 3641 c-92 -5 -111 -9 -123 -25 -8 -11 -14 -25 -14 -31 0 -5 87
-141 193 -300 148 -224 197 -291 215 -293 51 -8 52 -3 52 323 0 280 -1 303
-18 318 -20 18 -78 20 -305 8z"/>
<path d="M4318 3449 c-17 -9 -18 -35 -18 -313 0 -235 3 -306 13 -320 13 -17
27 -18 211 -11 167 6 200 10 219 25 19 16 21 22 11 47 -6 15 -95 153 -198 306
-124 183 -193 277 -204 277 -9 0 -25 -5 -34 -11z"/>
<path d="M4050 2605 c-810 -54 -828 -56 -844 -74 -8 -9 -51 -112 -96 -230 -93
-246 -94 -261 -18 -261 144 -1 1267 43 1286 51 13 5 30 26 38 47 9 20 22 51
29 67 45 100 145 363 145 382 0 19 -35 55 -50 52 -3 -1 -223 -16 -490 -34z"/>
</g>
</svg>
